[IMG]http://i981.photobucket.com/albums/ae294/fasamoo/gogo.gif[/IMG]
[url=http://www.imgboot.com/image.php?u=fasamoo&i=gogo.gif][img]http://imgboot.com/images/fasamoo/gogo.gif[/img][/url]

[img]http://www.lytrules.com/weblog/archives/infested.jpg[/img]

[url=http://www.imgboot.com/image.php?u=fasamoo&i=plot.gif][img]http://imgboot.com/images/fasamoo/plot.gif[/img][/url]

Horror tale of insects which eat their victims from the inside out.  
 
[url=http://www.imgboot.com/image.php?u=fasamoo&i=screenshots.gif][img]http://imgboot.com/images/fasamoo/screenshots.gif[/img][/url]

[url=http://www.imgboot.com/image.php?u=fasamoo&i=sm1272010052505355964.jpg][img]http://imgboot.com/images/fasamoo/sm1272010052505355964.jpg[/img][/url]
[url=http://www.imgboot.com/image.php?u=fasamoo&i=sm1272010052505361880.jpg][img]http://imgboot.com/images/fasamoo/sm1272010052505361880.jpg[/img][/url]
[url=http://www.imgboot.com/image.php?u=fasamoo&i=sm1272010052505364744.jpg][img]http://imgboot.com/images/fasamoo/sm1272010052505364744.jpg[/img][/url]
[url=http://www.imgboot.com/image.php?u=fasamoo&i=sm1272010052505372155.jpg][img]http://imgboot.com/images/fasamoo/sm1272010052505372155.jpg[/img][/url]
[url=http://www.imgboot.com/image.php?u=fasamoo&i=sm1272010052505381214.jpg][img]http://imgboot.com/images/fasamoo/sm1272010052505381214.jpg[/img][/url]
[url=http://www.imgboot.com/image.php?u=fasamoo&i=sm1272010052505393386.jpg][img]http://imgboot.com/images/fasamoo/sm1272010052505393386.jpg[/img][/url]
[url=http://www.imgboot.com/image.php?u=fasamoo&i=sm1272010052505405609.jpg][img]http://imgboot.com/images/fasamoo/sm1272010052505405609.jpg[/img][/url]
[url=http://www.imgboot.com/image.php?u=fasamoo&i=sm1272010052505420678.jpg][img]http://imgboot.com/images/fasamoo/sm1272010052505420678.jpg[/img][/url]

[url=http://www.imgboot.com/image.php?u=fasamoo&i=info.gif][img]http://imgboot.com/images/fasamoo/info.gif[/img][/url]

General
Complete name                    : Infested 2002 DVDRip GoGoInfested 2002 DVDRip GoGo.avi
IMDB Link                        : http://www.imdb.com/title/tt0287497/
Format                           : AVI
Format/Info                      : Audio Video Interleave
File size                        : 700 MiB
Duration                         : 1h 23mn
Overall bit rate                 : 1 170 Kbps
Writing application              : VirtualDubMod 1.5.4.1 (build 2178/release)
Writing library                  : VirtualDubMod build 2178/release

Video
ID                               : 0
Format                           : MPEG-4 Visual
Format profile                   : Advanced Simple@L5
Format settings, BVOP            : Yes
Format settings, QPel            : No
Format settings, GMC             : No warppoints
Format settings, Matrix          : Custom
Codec ID                         : XVID
Codec ID/Hint                    : XviD
Duration                         : 1h 23mn
Bit rate                         : 1 040 Kbps
Width                            : 608 pixels
Height                           : 320 pixels
Display aspect ratio             : 1.900
Frame rate                       : 23.976 fps
Resolution                       : 8 bits
Colorimetry                      : 4:2:0
Scan type                        : Progressive
Bits/(Pixel*Frame)               : 0.223
Stream size                      : 622 MiB (89%)
Writing library                  : XviD 1.2.1 (UTC 2008-12-04)

Audio
ID                               : 1
Format                           : MPEG Audio
Format version                   : Version 1
Format profile                   : Layer 3
Mode                             : Joint stereo
Format_Settings_ModeExtension    : MS Stereo
Codec ID                         : 55
Codec ID/Hint                    : MP3
Duration                         : 1h 23mn
Bit rate mode                    : Variable
Bit rate                         : 118 Kbps
Nominal bit rate                 : 128 Kbps
Channel(s)                       : 2 channels
Sampling rate                    : 48.0 KHz
Stream size                      : 70.4 MiB (10%)
Alignment                        : Aligned on interleaves
Interleave, duration             : 24 ms (0.58 video frame)
Interleave, preload duration     : 532 ms
Writing library                  : LAME3.98r
Encoding settings                : -m j -V 4 -q 2 -lowpass 17 --abr 128
Language                         : English
Subtitles                        :English,Francais,Espanol,Portugues,Chinese,Korean,
                                  Thai,Malay.(.IDX+*.SUB)  
                                 : English.(.srt)
Genre                            : Horror | Sci-Fi 

[IMG]http://i981.photobucket.com/albums/ae294/fasamoo/pleaseseed.gif[/IMG]